<mxfile host="app.diagrams.net" modified="2024-03-25T02:12:09.692Z" agent="Mozilla/5.0 (Windows NT 10.0; Win64; x64) AppleWebKit/537.36 (KHTML, like Gecko) Chrome/122.0.0.0 Safari/537.36" etag="llqw0mgEoki1Nv7TyTNu" version="24.1.0" type="device">
  <diagram name="Page-1" id="qxKMdha_kCKhgB4_eke_">
    <mxGraphModel dx="1050" dy="557" grid="1" gridSize="10" guides="1" tooltips="1" connect="1" arrows="1" fold="1" page="1" pageScale="1" pageWidth="850" pageHeight="1100" math="0" shadow="0">
      <root>
        <mxCell id="0" />
        <mxCell id="1" parent="0" />
        <mxCell id="lZYzv6IkLpeV6OahfHoC-58" value="" style="edgeStyle=orthogonalEdgeStyle;rounded=0;orthogonalLoop=1;jettySize=auto;html=1;" parent="1" source="lZYzv6IkLpeV6OahfHoC-1" target="lZYzv6IkLpeV6OahfHoC-2" edge="1">
          <mxGeometry relative="1" as="geometry" />
        </mxCell>
        <mxCell id="lZYzv6IkLpeV6OahfHoC-1" value="Start" style="ellipse;whiteSpace=wrap;html=1;fontSize=15;" parent="1" vertex="1">
          <mxGeometry x="355" y="48" width="120" height="80" as="geometry" />
        </mxCell>
        <mxCell id="lZYzv6IkLpeV6OahfHoC-47" value="" style="edgeStyle=orthogonalEdgeStyle;rounded=0;orthogonalLoop=1;jettySize=auto;html=1;" parent="1" source="lZYzv6IkLpeV6OahfHoC-2" target="lZYzv6IkLpeV6OahfHoC-38" edge="1">
          <mxGeometry relative="1" as="geometry" />
        </mxCell>
        <mxCell id="lZYzv6IkLpeV6OahfHoC-2" value="&lt;b&gt;Generate Initial Population&lt;/b&gt;&lt;div style=&quot;font-size: 15px;&quot;&gt;Population = [Schedule1, Schedule2,...]&lt;/div&gt;" style="rounded=1;whiteSpace=wrap;html=1;fontSize=15;" parent="1" vertex="1">
          <mxGeometry x="280" y="178" width="270" height="90" as="geometry" />
        </mxCell>
        <mxCell id="lZYzv6IkLpeV6OahfHoC-48" value="" style="edgeStyle=orthogonalEdgeStyle;rounded=0;orthogonalLoop=1;jettySize=auto;html=1;" parent="1" source="lZYzv6IkLpeV6OahfHoC-38" target="lZYzv6IkLpeV6OahfHoC-39" edge="1">
          <mxGeometry relative="1" as="geometry" />
        </mxCell>
        <mxCell id="lZYzv6IkLpeV6OahfHoC-38" value="&lt;b&gt;Calculate fitness of each&amp;nbsp;&lt;/b&gt;&lt;div&gt;&lt;b&gt;individual in the population&lt;/b&gt;&lt;/div&gt;" style="rounded=1;whiteSpace=wrap;html=1;fontSize=15;" parent="1" vertex="1">
          <mxGeometry x="280" y="320" width="270" height="80" as="geometry" />
        </mxCell>
        <mxCell id="lZYzv6IkLpeV6OahfHoC-49" value="" style="edgeStyle=orthogonalEdgeStyle;rounded=0;orthogonalLoop=1;jettySize=auto;html=1;" parent="1" source="lZYzv6IkLpeV6OahfHoC-39" target="lZYzv6IkLpeV6OahfHoC-41" edge="1">
          <mxGeometry relative="1" as="geometry" />
        </mxCell>
        <mxCell id="lZYzv6IkLpeV6OahfHoC-39" value="&lt;b&gt;Selection&lt;/b&gt;&lt;div&gt;Get Parents Using Roulette Wheel Selection&lt;/div&gt;" style="rounded=1;whiteSpace=wrap;html=1;fontSize=15;" parent="1" vertex="1">
          <mxGeometry x="280" y="441" width="270" height="80" as="geometry" />
        </mxCell>
        <mxCell id="lZYzv6IkLpeV6OahfHoC-50" value="" style="edgeStyle=orthogonalEdgeStyle;rounded=0;orthogonalLoop=1;jettySize=auto;html=1;" parent="1" source="lZYzv6IkLpeV6OahfHoC-41" target="lZYzv6IkLpeV6OahfHoC-42" edge="1">
          <mxGeometry relative="1" as="geometry" />
        </mxCell>
        <mxCell id="lZYzv6IkLpeV6OahfHoC-41" value="&lt;b&gt;Crossover&lt;/b&gt;&lt;div style=&quot;font-size: 15px;&quot;&gt;Parent1 = [&lt;font color=&quot;#ff3333&quot; style=&quot;font-size: 15px;&quot;&gt;Session1, Session2, Session3, Session4, Session5&lt;/font&gt;]&lt;/div&gt;&lt;div style=&quot;font-size: 15px;&quot;&gt;Parent2 = [&lt;font color=&quot;#3333ff&quot; style=&quot;font-size: 15px;&quot;&gt;Session1, Session2, Session3, Session4, Session5&lt;/font&gt;]&lt;/div&gt;&lt;div style=&quot;font-size: 15px;&quot;&gt;Offspring =&amp;nbsp;&lt;span style=&quot;background-color: initial; font-size: 15px;&quot;&gt;[&lt;font color=&quot;#ff3333&quot; style=&quot;font-size: 15px;&quot;&gt;Session1, Session2&lt;/font&gt;, &lt;font color=&quot;#3333ff&quot; style=&quot;font-size: 15px;&quot;&gt;Session3, Session4, Session5&lt;/font&gt;]&lt;/span&gt;&lt;/div&gt;" style="rounded=1;whiteSpace=wrap;html=1;fontSize=15;" parent="1" vertex="1">
          <mxGeometry x="280" y="570" width="270" height="130" as="geometry" />
        </mxCell>
        <mxCell id="lZYzv6IkLpeV6OahfHoC-51" value="" style="edgeStyle=orthogonalEdgeStyle;rounded=0;orthogonalLoop=1;jettySize=auto;html=1;" parent="1" source="lZYzv6IkLpeV6OahfHoC-42" target="lZYzv6IkLpeV6OahfHoC-43" edge="1">
          <mxGeometry relative="1" as="geometry" />
        </mxCell>
        <mxCell id="lZYzv6IkLpeV6OahfHoC-42" value="&lt;b&gt;Mutation&lt;/b&gt;&lt;div style=&quot;font-size: 15px;&quot;&gt;Before mutation =&amp;gt;&amp;nbsp;&lt;/div&gt;&lt;div style=&quot;font-size: 15px;&quot;&gt;Track1 = [&lt;font color=&quot;#00cc00&quot;&gt;Paper1, Paper2, Paper3&lt;/font&gt;]&lt;/div&gt;&lt;div style=&quot;font-size: 15px;&quot;&gt;Track2&amp;nbsp; = [&lt;font color=&quot;#b266ff&quot;&gt;Paper4, Paper5, Paper6&lt;/font&gt;]&lt;/div&gt;&lt;div style=&quot;font-size: 15px;&quot;&gt;After mutation =&amp;gt;&amp;nbsp;&lt;/div&gt;&lt;div style=&quot;font-size: 15px;&quot;&gt;Track1 = [&lt;font color=&quot;#00cc00&quot;&gt;Paper1, &lt;/font&gt;&lt;font color=&quot;#b266ff&quot;&gt;Paper5&lt;/font&gt;&lt;font color=&quot;#00cc00&quot;&gt;, Paper3&lt;/font&gt;]&lt;/div&gt;&lt;div style=&quot;font-size: 15px;&quot;&gt;Track2=[&lt;font color=&quot;#b266ff&quot;&gt;Paper4, &lt;/font&gt;&lt;font color=&quot;#00cc00&quot;&gt;Paper2&lt;/font&gt;&lt;font color=&quot;#b266ff&quot;&gt;, Paper6&lt;/font&gt;&amp;nbsp;]&lt;/div&gt;" style="rounded=1;whiteSpace=wrap;html=1;fontSize=15;" parent="1" vertex="1">
          <mxGeometry x="280" y="760" width="270" height="140" as="geometry" />
        </mxCell>
        <mxCell id="lZYzv6IkLpeV6OahfHoC-52" value="" style="edgeStyle=orthogonalEdgeStyle;rounded=0;orthogonalLoop=1;jettySize=auto;html=1;" parent="1" source="lZYzv6IkLpeV6OahfHoC-43" target="lZYzv6IkLpeV6OahfHoC-44" edge="1">
          <mxGeometry relative="1" as="geometry" />
        </mxCell>
        <mxCell id="lZYzv6IkLpeV6OahfHoC-43" value="Calculate fitness of each individual in the population" style="rounded=1;whiteSpace=wrap;html=1;fontSize=15;" parent="1" vertex="1">
          <mxGeometry x="280" y="961" width="270" height="80" as="geometry" />
        </mxCell>
        <mxCell id="lZYzv6IkLpeV6OahfHoC-53" value="" style="edgeStyle=orthogonalEdgeStyle;rounded=0;orthogonalLoop=1;jettySize=auto;html=1;" parent="1" source="lZYzv6IkLpeV6OahfHoC-44" target="lZYzv6IkLpeV6OahfHoC-45" edge="1">
          <mxGeometry relative="1" as="geometry" />
        </mxCell>
        <mxCell id="lZYzv6IkLpeV6OahfHoC-56" style="edgeStyle=orthogonalEdgeStyle;rounded=0;orthogonalLoop=1;jettySize=auto;html=1;entryX=0;entryY=0.5;entryDx=0;entryDy=0;" parent="1" source="lZYzv6IkLpeV6OahfHoC-44" target="lZYzv6IkLpeV6OahfHoC-39" edge="1">
          <mxGeometry relative="1" as="geometry">
            <Array as="points">
              <mxPoint x="150" y="1150" />
              <mxPoint x="150" y="480" />
            </Array>
          </mxGeometry>
        </mxCell>
        <mxCell id="lZYzv6IkLpeV6OahfHoC-44" value="Stopping conditions&amp;nbsp;&lt;div&gt;apply?&lt;/div&gt;" style="rhombus;whiteSpace=wrap;html=1;fontSize=15;" parent="1" vertex="1">
          <mxGeometry x="350" y="1085" width="130" height="130" as="geometry" />
        </mxCell>
        <mxCell id="lZYzv6IkLpeV6OahfHoC-54" value="" style="edgeStyle=orthogonalEdgeStyle;rounded=0;orthogonalLoop=1;jettySize=auto;html=1;" parent="1" source="lZYzv6IkLpeV6OahfHoC-45" target="lZYzv6IkLpeV6OahfHoC-46" edge="1">
          <mxGeometry relative="1" as="geometry" />
        </mxCell>
        <mxCell id="lZYzv6IkLpeV6OahfHoC-45" value="Choose the individual with highest fitness value" style="rounded=1;whiteSpace=wrap;html=1;fontSize=15;" parent="1" vertex="1">
          <mxGeometry x="281" y="1258" width="269" height="110" as="geometry" />
        </mxCell>
        <mxCell id="lZYzv6IkLpeV6OahfHoC-46" value="End" style="ellipse;whiteSpace=wrap;html=1;fontSize=15;" parent="1" vertex="1">
          <mxGeometry x="356" y="1429" width="120" height="80" as="geometry" />
        </mxCell>
        <mxCell id="lZYzv6IkLpeV6OahfHoC-55" value="&lt;b&gt;&lt;font style=&quot;font-size: 14px;&quot;&gt;Yes&lt;/font&gt;&lt;/b&gt;" style="text;html=1;align=center;verticalAlign=middle;resizable=0;points=[];autosize=1;strokeColor=none;fillColor=none;" parent="1" vertex="1">
          <mxGeometry x="405" y="1218" width="50" height="30" as="geometry" />
        </mxCell>
        <mxCell id="lZYzv6IkLpeV6OahfHoC-57" value="&lt;b&gt;&lt;font style=&quot;font-size: 14px;&quot;&gt;No&lt;/font&gt;&lt;/b&gt;" style="text;html=1;align=center;verticalAlign=middle;resizable=0;points=[];autosize=1;strokeColor=none;fillColor=none;" parent="1" vertex="1">
          <mxGeometry x="270" y="1120" width="40" height="30" as="geometry" />
        </mxCell>
      </root>
    </mxGraphModel>
  </diagram>
</mxfile>
